<svg xmlns="http://www.w3.org/2000/svg" xmlns:xlink="http://www.w3.org/1999/xlink" width="143" height="129" version="1.1" viewBox="0 0 143 129"><title>icn_fluxo_office</title><desc>Created with Sketch.</desc><g id="Page-1" fill="none" fill-rule="evenodd" stroke="none" stroke-width="1"><g id="Artboard" fill-rule="nonzero" transform="translate(-4.000000, -11.000000)"><g id="icn_fluxo_office" transform="translate(4.000000, 11.000000)"><rect id="Rectangle" width="14.3" height="14.333" x="57.2" y="28.667" fill="#4D5BED"/><rect id="Rectangle" width="14.3" height="14.333" x="57.2" y="57.333" fill="#4D5BED"/><rect id="Rectangle" width="14.3" height="14.333" x="100.1" y="57.333" fill="#7C87FB" fill-opacity=".65"/><rect id="Rectangle" width="14.3" height="14.333" x="100.1" y="86" fill="#7C87FB" fill-opacity=".65"/><path id="Path" fill="#7C87FB" fill-opacity=".65" d="M128.7,28.6666667 L100.1,28.6666667 L100.1,43 L128.7,43 L128.7,114.666667 L100.1,114.666667 L100.1,129 L143,129 L143,43 C143,35.1166667 136.565,28.6666667 128.7,28.6666667 Z"/><rect id="Rectangle" width="14.3" height="14.333" x="28.6" y="86" fill="#4D5BED"/><rect id="Rectangle" width="14.3" height="14.333" x="57.2" y="86" fill="#4D5BED"/><path id="Shape" fill="#4D5BED" d="M100.1,100.333333 L100.1,86 L100.1,71.6666667 L100.1,57.3333333 L100.1,43 L100.1,28.6666667 L100.1,14.3333333 C100.1,6.45 93.665,0 85.8,0 L14.3,0 C6.435,0 0,6.45 0,14.3333333 L0,129 L100.1,129 L100.1,114.666667 L100.1,100.333333 Z M14.3,14.3333333 L85.8,14.3333333 L85.8,114.666667 L14.3,114.666667 L14.3,14.3333333 Z"/><rect id="Rectangle" width="14.3" height="14.333" x="28.6" y="57.333" fill="#4D5BED"/><rect id="Rectangle" width="14.3" height="14.333" x="28.6" y="28.667" fill="#4D5BED"/></g></g></g></svg>